# File created by Blade
# Date/Time:  Wed Jan 21 15:23:43 2015
# Frame Rate: 120.000 fps
#------------------------------------------------------
:FULLY-SPECIFIED
:DEGREES
1162
root 29.049306 30.669197 -18.763064 -167.882769 0.829232 -173.771437
Spine 8.877649 1.361730 -0.161458
Head -19.040624 1.958218 5.163649
LeftShoulder -5.078018 -25.792037 1.348616
LeftArm -21.366110 40.897471 -86.306371
LeftForeArm 17.762192 0.000000 31.934981
LeftHand 0.192800 -0.000000 -5.047015
LeftHandThumb1 -26.253704 0.000000 33.147579
RightShoulder -3.998701 -10.920540 7.756233
RightArm 17.249816 -25.731265 56.049595
RightForeArm -35.271639 -0.000000 51.766435
RightHand 3.877219 -0.000000 4.788804
RightHandThumb1 -24.326973 -0.000000 -32.862282
LeftUpLeg -11.442567 18.543450 33.772253
LeftLeg 5.173036 -0.000000 -0.000000
LeftFoot -16.472392 24.141612 -21.821901
LeftToeBase 34.186814 -0.000000 -0.000000
RightUpLeg -46.087931 -27.257004 8.436061
RightLeg 58.710467 -0.000000 -0.000000
RightFoot -40.460973 -16.438577 20.298610
RightToeBase 24.862617 -0.000000 -0.000000
1163
root 29.205541 30.582562 -18.738988 -167.812625 0.839138 -173.435376
Spine 8.974010 1.285615 0.315743
Head -19.114242 2.059830 5.019726
LeftShoulder -5.143549 -25.724665 1.277179
LeftArm -21.227995 40.838218 -86.211990
LeftForeArm 17.871106 -0.000000 32.014697
LeftHand 0.231078 -0.000000 -5.210620
LeftHandThumb1 -26.253704 0.000000 33.147579
RightShoulder -3.990963 -10.849571 7.701746
RightArm 17.216056 -25.649187 55.951036
RightForeArm -35.275889 -0.000000 52.140576
RightHand 3.913355 -0.000000 4.641386
RightHandThumb1 -24.326973 -0.000000 -32.862282
LeftUpLeg -11.442845 18.895579 34.369298
LeftLeg 5.138106 -0.000000 -0.000000
LeftFoot -16.362297 23.973439 -21.649976
LeftToeBase 34.416763 -0.000000 -0.000000
RightUpLeg -46.439113 -27.026145 9.056637
RightLeg 59.236721 -0.000000 -0.000000
RightFoot -40.874601 -16.536935 20.270782
RightToeBase 24.847476 -0.000000 -0.000000
1164
root 29.366253 30.498207 -18.713516 -167.749669 0.799749 -173.030914
Spine 9.107726 1.133663 0.865696
Head -19.275860 2.224918 4.869351
LeftShoulder -5.238993 -25.761832 1.237007
LeftArm -21.223272 40.784310 -86.231441
LeftForeArm 17.715168 0.000000 32.045712
LeftHand 0.471267 -0.000000 -5.636310
LeftHandThumb1 -26.253704 0.000000 33.147579
RightShoulder -3.978879 -10.777581 7.645861
RightArm 17.237052 -25.547336 55.832478
RightForeArm -35.580597 -0.000000 52.539955
RightHand 3.797710 -0.000000 4.685861
RightHandThumb1 -24.326973 -0.000000 -32.862282
LeftUpLeg -11.495737 19.294153 35.026976
LeftLeg 5.151686 -0.000000 -0.000000
LeftFoot -16.243477 23.757262 -21.469781
LeftToeBase 34.571439 -0.000000 -0.000000
RightUpLeg -46.765991 -26.835749 9.765831
RightLeg 59.721042 -0.000000 -0.000000
RightFoot -41.253160 -16.608324 20.304337
RightToeBase 24.717214 -0.000000 -0.000000
1165
root 29.520518 30.414770 -18.693212 -167.675337 0.806657 -172.702449
Spine 9.183199 1.045480 1.294332
Head -19.348729 2.338564 4.824038
LeftShoulder -5.295667 -25.738166 1.222418
LeftArm -21.231802 40.662863 -86.238785
LeftForeArm 17.997295 -0.000000 32.165347
LeftHand -0.039518 0.000000 -4.980474
LeftHandThumb1 -26.253704 0.000000 33.147579
RightShoulder -3.991524 -10.791433 7.663722
RightArm 17.324767 -25.464173 55.613347
RightForeArm -35.681090 -0.000000 52.910319
RightHand 3.860886 0.000000 4.709779
RightHandThumb1 -24.326973 -0.000000 -32.862282
LeftUpLeg -11.468629 19.605183 35.610957
LeftLeg 5.068816 -0.000000 -0.000000
LeftFoot -16.133476 23.652745 -21.306585
LeftToeBase 34.823658 -0.000000 -0.000000
RightUpLeg -47.111485 -26.670108 10.401682
RightLeg 60.216446 -0.000000 -0.000000
RightFoot -41.637233 -16.646943 20.247784
RightToeBase 24.687953 -0.000000 -0.000000
1166
root 29.671704 30.334397 -18.673320 -167.626132 0.842816 -172.349208
Spine 9.319614 0.982324 1.758276
Head -19.476913 2.470182 4.725981
LeftShoulder -5.326432 -25.824215 1.159919
LeftArm -21.343507 40.574637 -86.259445
LeftForeArm 17.832839 -0.000000 32.249492
LeftHand 0.017833 -0.000000 -5.016093
LeftHandThumb1 -26.253704 0.000000 33.147579
RightShoulder -3.933604 -10.697319 7.634191
RightArm 17.253197 -25.358287 55.525118
RightForeArm -35.781303 -0.000000 53.281977
RightHand 3.820296 -0.000000 4.647229
RightHandThumb1 -24.326973 -0.000000 -32.862282
LeftUpLeg -11.410420 19.971548 36.214521
LeftLeg 5.009811 -0.000000 -0.000000
LeftFoot -16.029677 23.506969 -21.107310
LeftToeBase 35.135717 -0.000000 -0.000000
RightUpLeg -47.383249 -26.425479 11.016864
RightLeg 60.655467 -0.000000 -0.000000
RightFoot -42.019012 -16.778073 20.188182
RightToeBase 24.674434 -0.000000 -0.000000
1167
root 29.823298 30.257264 -18.650193 -167.551687 0.868263 -171.985667
Spine 9.414640 0.937873 2.221053
Head -19.553256 2.607587 4.636213
LeftShoulder -5.320558 -25.836709 1.099046
LeftArm -21.387302 40.452191 -86.252092
LeftForeArm 17.705392 0.000000 32.323305
LeftHand -0.043579 -0.000000 -4.850711
LeftHandThumb1 -26.253704 0.000000 33.147579
RightShoulder -3.923315 -10.668892 7.628811
RightArm 17.266753 -25.227400 55.390108
RightForeArm -35.894914 -0.000000 53.624940
RightHand 3.931808 -0.000000 4.665590
RightHandThumb1 -24.326973 -0.000000 -32.862282
LeftUpLeg -11.393329 20.356325 36.812907
LeftLeg 4.961066 -0.000000 -0.000000
LeftFoot -15.905584 23.384163 -20.906791
LeftToeBase 35.380027 -0.000000 -0.000000
RightUpLeg -47.682692 -26.169664 11.659584
RightLeg 61.077184 -0.000000 -0.000000
RightFoot -42.332148 -16.798880 20.276300
RightToeBase 24.357018 -0.000000 -0.000000
1168
root 29.968044 30.181949 -18.634515 -167.524637 0.878326 -171.686669
Spine 9.560371 0.814448 2.589187
Head -19.662217 2.781448 4.641672
LeftShoulder -5.376583 -25.863675 1.072417
LeftArm -21.462793 40.387651 -86.263343
LeftForeArm 17.513293 -0.000000 32.394902
LeftHand 0.033671 -0.000000 -4.804450
LeftHandThumb1 -26.253704 0.000000 33.147579
RightShoulder -3.865007 -10.658303 7.658785
RightArm 17.317419 -25.145222 55.193621
RightForeArm -35.839616 -0.000000 53.939749
RightHand 3.918482 -0.000000 4.715972
RightHandThumb1 -24.326973 -0.000000 -32.862282
LeftUpLeg -11.309020 20.636498 37.351854
LeftLeg 4.853952 -0.000000 -0.000000
LeftFoot -15.762395 23.279345 -20.776556
LeftToeBase 35.396905 -0.000000 -0.000000
RightUpLeg -47.916064 -25.979752 12.206802
RightLeg 61.503250 -0.000000 -0.000000
RightFoot -42.729654 -16.963943 20.170968
RightToeBase 24.613748 -0.000000 -0.000000
1169
root 30.111194 30.108015 -18.615299 -167.480463 0.897662 -171.379218
Spine 9.696244 0.763646 2.963970
Head -19.768405 2.911443 4.639921
LeftShoulder -5.360388 -25.870689 1.046029
LeftArm -21.506030 40.278656 -86.271079
LeftForeArm 17.409356 -0.000000 32.471687
LeftHand 0.045852 -0.000000 -4.778822
LeftHandThumb1 -26.253704 0.000000 33.147579
RightShoulder -3.862163 -10.642813 7.651834
RightArm 17.351733 -25.001263 55.108959
RightForeArm -36.027199 -0.000000 54.222976
RightHand 3.945784 -0.000000 4.607960
RightHandThumb1 -24.326973 -0.000000 -32.862282
LeftUpLeg -11.253238 20.973111 37.884609
LeftLeg 4.769804 -0.000000 -0.000000
LeftFoot -15.630052 23.163824 -20.652378
LeftToeBase 35.531124 -0.000000 -0.000000
RightUpLeg -48.157257 -25.743870 12.759163
RightLeg 61.900937 -0.000000 -0.000000
RightFoot -43.089141 -17.095648 20.140894
RightToeBase 24.652686 -0.000000 -0.000000
1170
root 30.255008 30.036724 -18.597919 -167.424480 0.919737 -171.053893
Spine 9.803090 0.695237 3.350109
Head -19.852625 3.053032 4.619700
LeftShoulder -5.373860 -25.870528 1.023612
LeftArm -21.583405 40.202526 -86.293093
LeftForeArm 17.301738 -0.000000 32.580524
LeftHand -0.113339 0.000000 -4.442688
LeftHandThumb1 -26.253704 0.000000 33.147579
RightShoulder -3.841193 -10.610889 7.652512
RightArm 17.364769 -24.889050 55.026031
RightForeArm -36.049083 -0.000000 54.499361
RightHand 4.017677 -0.000000 4.546523
RightHandThumb1 -24.326973 -0.000000 -32.862282
LeftUpLeg -11.177359 21.262814 38.443758
LeftLeg 4.651881 -0.000000 -0.000000
LeftFoot -15.474829 23.127484 -20.547331
LeftToeBase 35.673155 -0.000000 -0.000000
RightUpLeg -48.385797 -25.489302 13.326294
RightLeg 62.272556 -0.000000 -0.000000
RightFoot -43.418776 -17.214426 20.119835
RightToeBase 24.614195 -0.000000 -0.000000
1171
root 30.390949 29.966201 -18.584681 -167.419862 0.931761 -170.746492
Spine 9.971010 0.607841 3.730695
Head -19.955726 3.181306 4.616081
LeftShoulder -5.408220 -25.820132 0.995489
LeftArm -21.547583 40.192981 -86.297732
LeftForeArm 17.267117 0.000000 32.612131
LeftHand -0.117394 -0.000000 -4.303509
LeftHandThumb1 -26.253704 0.000000 33.147579
RightShoulder -3.864915 -10.628187 7.619772
RightArm 17.526098 -24.833863 54.888028
RightForeArm -35.902579 -0.000000 54.692386
RightHand 4.070558 -0.000000 4.391427
RightHandThumb1 -24.326973 -0.000000 -32.862282
LeftUpLeg -11.056781 21.480195 38.990349
LeftLeg 4.533052 -0.000000 -0.000000
LeftFoot -15.323548 23.097652 -20.383307
LeftToeBase 35.616264 -0.000000 -0.000000
RightUpLeg -48.552850 -25.278303 13.842551
RightLeg 62.640589 -0.000000 -0.000000
RightFoot -43.756810 -17.317147 20.106885
RightToeBase 24.652661 -0.000000 -0.000000
1172
root 30.524807 29.898142 -18.571955 -167.398991 0.929529 -170.448452
Spine 10.111664 0.502834 4.102371
Head -20.043075 3.363468 4.572680
LeftShoulder -5.434007 -25.776358 0.960959
LeftArm -21.570122 40.219260 -86.301218
LeftForeArm 17.297381 -0.000000 32.723446
LeftHand -0.078375 -0.000000 -4.358668
LeftHandThumb1 -26.253704 0.000000 33.147579
RightShoulder -3.792607 -10.546365 7.559321
RightArm 17.432280 -24.738282 54.906255
RightForeArm -35.893598 0.000000 54.982135
RightHand 3.975441 -0.000000 4.362213
RightHandThumb1 -24.326973 -0.000000 -32.862282
LeftUpLeg -10.938080 21.657713 39.523762
LeftLeg 4.370629 -0.000000 -0.000000
LeftFoot -15.204539 23.109444 -20.283431
LeftToeBase 35.695749 -0.000000 -0.000000
RightUpLeg -48.732652 -25.057386 14.348136
RightLeg 63.001693 -0.000000 -0.000000
RightFoot -44.034307 -17.324169 20.209761
RightToeBase 24.352805 -0.000000 -0.000000
1173
root 30.653144 29.830771 -18.557487 -167.334082 0.950060 -170.200177
Spine 10.186398 0.447696 4.395082
Head -20.104170 3.432304 4.628775
LeftShoulder -5.414441 -25.797133 0.981216
LeftArm -21.643043 40.196284 -86.404943
LeftForeArm 17.274992 -0.000000 32.710694
LeftHand -0.142482 -0.000000 -4.387090
LeftHandThumb1 -26.253704 0.000000 33.147579
RightShoulder -3.799944 -10.562371 7.522933
RightArm 17.486428 -24.602642 54.911228
RightForeArm -35.860960 -0.000000 55.169119
RightHand 4.066755 -0.000000 4.242421
RightHandThumb1 -24.326973 -0.000000 -32.862282
LeftUpLeg -10.858256 21.850177 39.981865
LeftLeg 4.224023 -0.000000 -0.000000
LeftFoot -15.090532 23.141889 -20.184268
LeftToeBase 35.754568 -0.000000 -0.000000
RightUpLeg -48.962058 -24.823420 14.817297
RightLeg 63.366274 -0.000000 -0.000000
RightFoot -44.389667 -17.500176 20.143403
RightToeBase 24.538713 -0.000000 -0.000000
1174
root 30.779566 29.765220 -18.545413 -167.261194 0.948360 -169.916272
Spine 10.235642 0.371925 4.746973
Head -20.112869 3.587162 4.612417
LeftShoulder -5.380292 -25.823517 0.969721
LeftArm -21.794331 40.142440 -86.526194
LeftForeArm 17.352565 -0.000000 32.771082
LeftHand -0.207148 -0.000000 -4.260257
LeftHandThumb1 -26.253704 0.000000 33.147579
RightShoulder -3.778807 -10.513291 7.443657
RightArm 17.429685 -24.542627 54.954300
RightForeArm -35.819664 -0.000000 55.410835
RightHand 4.175840 -0.000000 4.206919
RightHandThumb1 -24.326973 -0.000000 -32.862282
LeftUpLeg -10.768342 22.025341 40.478429
LeftLeg 4.041314 -0.000000 -0.000000
LeftFoot -14.951439 23.163891 -20.068622
LeftToeBase 35.754776 -0.000000 -0.000000
RightUpLeg -49.179000 -24.603777 15.326337
RightLeg 63.698314 -0.000000 -0.000000
RightFoot -44.703049 -17.602453 20.147367
RightToeBase 24.532089 -0.000000 -0.000000
